HIERARCHY
ROOT Hips
{
  OFFSET -25.8593 92.5765 -0.426625
  CHANNELS 6 Xposition Yposition Zposition Zrotation Xrotation Yrotation
  JOINT ToSpine
  {
    OFFSET -2.69724 7.43032 -0.144315
    CHANNELS 3 Zrotation Xrotation Yrotation
    JOINT Spine
    {
      OFFSET -0.0310711 10.7595 1.96963
      CHANNELS 3 Zrotation Xrotation Yrotation
      JOINT Spine1
      {
        OFFSET 19.9056 3.91189 0.764692
        CHANNELS 3 Zrotation Xrotation Yrotation
        JOINT Neck
        {
          OFFSET 25.9749 7.03908 -0.130764
          CHANNELS 3 Zrotation Xrotation Yrotation
          JOINT Head
          {
            OFFSET 9.52751 0.295786 -0.907742
            CHANNELS 3 Zrotation Xrotation Yrotation
            End Site
            {
              OFFSET 16.4037 0.713936 2.7358
            }
          }
        }
        JOINT LeftShoulder
        {
          OFFSET 17.7449 4.33886 11.7777
          CHANNELS 3 Zrotation Xrotation Yrotation
          JOINT LeftArm
          {
            OFFSET 0.911315 1.27913 9.80584
            CHANNELS 3 Zrotation Xrotation Yrotation
            JOINT LeftForeArm
            {
              OFFSET 28.6126 1.18197 -3.53199
              CHANNELS 3 Zrotation Xrotation Yrotation
              JOINT LeftHand
              {
                OFFSET 27.5088 0.0218783 0.327423
                CHANNELS 3 Zrotation Xrotation Yrotation
                End Site
                {
                  OFFSET 18.6038 -0.000155887 0.382096
                }
              }
            }
          }
        }
        JOINT RightShoulder
        {
          OFFSET 17.1009 2.89543 -12.2328
          CHANNELS 3 Zrotation Xrotation Yrotation
          JOINT RightArm
          {
            OFFSET 1.4228 0.178766 -10.211
            CHANNELS 3 Zrotation Xrotation Yrotation
            JOINT RightForeArm
            {
              OFFSET 28.733 1.87905 2.64907
              CHANNELS 3 Zrotation Xrotation Yrotation
              JOINT RightHand
              {
                OFFSET 27.4588 0.290562 -0.101845
                CHANNELS 3 Zrotation Xrotation Yrotation
                End Site
                {
                  OFFSET 17.8396 -0.255518 -0.000602873
                }
              }
            }
          }
        }
      }
    }
  }
  JOINT LeftUpLeg
  {
    OFFSET -5.61296 -2.22332 -10.2353
    CHANNELS 3 Zrotation Xrotation Yrotation
    JOINT LeftLeg
    {
      OFFSET 2.56703 -44.7417 -7.93097
      CHANNELS 3 Zrotation Xrotation Yrotation
      JOINT LeftFoot
      {
        OFFSET 3.16933 -46.5642 -3.96578
        CHANNELS 3 Zrotation Xrotation Yrotation
        JOINT LeftToeBase
        {
          OFFSET 0.346054 -6.02161 12.8035
          CHANNELS 3 Zrotation Xrotation Yrotation
          End Site
          {
            OFFSET 0.134235 -1.35082 5.13018
          }
        }
      }
    }
  }
  JOINT RightUpLeg
  {
    OFFSET -5.7928 -1.72406 10.6446
    CHANNELS 3 Zrotation Xrotation Yrotation
    JOINT RightLeg
    {
      OFFSET -2.57161 -44.7178 -7.85259
      CHANNELS 3 Zrotation Xrotation Yrotation
      JOINT RightFoot
      {
        OFFSET -3.10148 -46.5936 -4.03391
        CHANNELS 3 Zrotation Xrotation Yrotation
        JOINT RightToeBase
        {
          OFFSET -0.0828122 -6.13587 12.8035
          CHANNELS 3 Zrotation Xrotation Yrotation
          End Site
          {
            OFFSET -0.131328 -1.35082 5.13018
          }
        }
      }
    }
  }
}
MOTION
Frames:	8
Frame Time:	0.0333333
-270.402 94.8061 -232.132 65.883 -39.7589 -21.6187 -70.1915 0 88.8779 127.384 70.4216 -46.0746 11.344 23.2051 -3.35872 -166.782 19.6215 168.67 -148.021 56.0331 168.228 2.47312 -1.81267 -28.8706 -67.7748 40.6014 -104.852 4.88142 4.42161 -32.1939 18.9 -1.16361 -5.19431 0.442748 -1.77836 29.132 -67.3926 -51.4351 98.0549 15.2156 -5.60489 68.0575 10.2473 0.60419 6.80364 -23.1967 -13.1046 98.88 -4.98225 58.1231 -6.23629 4.10517 4.19743 -0.45581 -5.46523 -18.1038 12.2479 -53.1222 -1.40267 91.2289 171.266 57.622 -177.195 -10.5725 -30.8097 0.792001 -86.4527 7.37144 101.785 
-260.431 93.2296 -222.101 67.5515 -38.8332 -22.4959 -70.1915 0 88.8779 126.531 68.9013 -49.1997 9.2003 22.5502 -3.14136 -166.18 19.4126 167.713 -147.174 55.7356 168.913 2.37391 -1.92439 -27.7902 -74.6834 37.9826 -114.655 6.31874 6.07621 -34.7979 18.9915 -1.52032 -7.24676 0.452134 -1.77563 30.0277 -69.2544 -53.0524 91.1584 16.1798 -8.93796 57.8447 11.1711 0.510691 5.16404 -31.2227 -17.6664 97.6363 -5.42267 60.8514 -3.51564 7.0801 11.7309 -0.841189 -9.74969 -39.504 6.72554 -35.5124 -1.41561 97.2992 171.581 42.8185 -169.472 -14.4826 -6.05285 1.6025 -39.2611 42.6965 34.744 
-249.899 91.036 -210.961 68.8258 -32.6207 -23.6281 -70.1915 0 88.8779 117.849 68.0354 -46.6689 5.91309 19.3324 1.04787 -165.928 19.8069 169.801 -152.17 57.3102 172.167 2.23763 -2.4873 -27.118 -78.1665 37.6296 -125.788 8.63477 7.4037 -41.6992 17.2393 -1.26784 -6.52954 0.417411 -1.67892 28.1803 -75.1778 -55.3638 77.263 20.3126 -12.6382 55.7842 12.7755 0.489696 4.23405 -40.7424 -24.6835 93.3379 -5.30295 61.3285 -0.829016 10.5093 10.1581 -1.5674 -13.6409 -49.5677 1.95072 -15.834 -4.71485 101.985 171.808 38.3916 -169.253 -6.06052 -2.36866 0.9494 -0.226833 20.5729 -11.6357 
-237.219 91.444 -198.061 68.9029 -24.5622 -18.564 -70.1915 0 88.8779 109.429 65.896 -36.1341 3.75968 15.2637 4.0179 -165.789 19.9835 169.329 -151.643 57.3083 171.091 1.9527 -2.83413 -23.5929 -77.1467 40.4514 -137.01 13.2474 9.12689 -51.2601 18.0806 -1.1993 -5.72644 0.558943 -2.69576 27.6077 -77.7825 -55.634 65.9519 21.8305 -13.8122 55.7406 11.7187 0.296948 2.69199 -57.6091 -24.3564 77.4537 -4.42758 55.3152 -5.00835 9.87477 6.06218 -1.38204 -12.6131 -48.7844 4.87038 -4.07164 -8.69974 96.6373 170.707 50.1331 -166.036 -7.49695 -4.46608 1.10798 6.50464 7.77493 -20.933 
-223.916 93.9993 -184.57 64.321 -28.4386 -15.1072 -70.1915 0 88.8779 103.47 66.9416 -24.7685 1.69543 15.5141 7.10815 -163.826 18.4088 169.097 -148.459 54.8697 167.801 2.07119 -1.63047 -23.2147 -76.137 39.0935 -139.146 18.9946 8.77793 -63.4723 18.1124 -1.48062 -7.43743 0.3474 -1.33605 25.5115 -76.4721 -56.8842 59.5702 20.0552 -13.2946 53.9162 10.0143 0.217525 2.28248 -71.2642 -10.8102 81.6247 -0.0127412 42.7559 -14.4194 6.19827 -0.142879 -0.862039 -7.45509 -30.0275 9.10517 1.6729 -1.19988 90.1711 165.191 71.6455 -161.131 -6.91126 -5.98245 1.07648 4.89387 7.78664 -17.083 
-210.92 97.1698 -172.83 63.7024 -28.8725 -13.0727 -70.1915 0 88.8779 98.7601 65.6007 -18.6271 1.69957 13.5689 9.53746 -162.462 16.3093 169.108 -150.571 52.8613 167.157 2.10528 -0.618895 -22.2003 -74.9068 37.0147 -137.379 21.9299 5.66416 -74.9775 15.5839 -1.20275 -6.93444 0.132449 0.555546 23.0951 -72.3348 -59.1238 57.9328 15.4872 -10.91 50.4753 14.7273 0.63863 4.79578 -81.9095 2.53733 104.369 2.44514 34.1054 -33.143 0.462762 7.95117 0.36639 -5.76396 -14.7281 19.9012 -1.22953 -0.508377 87.3948 20.6011 80.8094 -14.4167 -6.50206 -6.41051 1.05426 4.01993 6.84451 -14.5564 
-198.919 99.1258 -162.266 64.2739 -27.5852 -12.3726 -70.1915 0 88.8779 95.7003 64.0035 -14.7696 3.22735 12.3939 8.77722 -160.328 15.9006 167.533 -149.763 52.0783 164.974 2.04806 -0.103394 -20.9239 -73.0013 34.2751 -134.941 20.546 2.34838 -83.5248 15.9882 -1.39607 -8.05799 0.0446727 1.42921 22.8801 -73.7536 -59.8838 52.7109 9.86352 -6.03428 51.0357 7.31637 0.31729 5.05563 -87.2372 0.215567 87.9991 -2.51663 40.8557 -8.10332 -0.000930853 8.95851 0.525415 -4.9735 -14.1299 13.0689 -7.39358 -4.09921 82.9818 3.20685 54.1219 2.68433 -1.92458 -4.82464 0.66382 -1.07561 9.55365 -4.37002 
-187.41 100.342 -152.43 66.7822 -25.7662 -11.3167 -70.1915 0 88.8779 95.163 62.5667 -12.8661 7.19783 11.8144 5.41705 -159.058 16.0041 167.586 -150.36 52.5722 166.532 1.91916 -0.477795 -19.85 -70.6138 34.0326 -131.089 22.4466 1.82416 -85.5421 19.7439 -1.56831 -7.1749 0.0544731 1.13315 24.2682 -77.2022 -60.3529 48.9698 10.1127 -6.05057 52.0035 10.4926 0.516298 5.61018 -86.8144 -1.66512 83.1883 -5.56295 62.0201 -3.76644 1.13051 10.4322 0.391915 -5.96705 -20.5033 15.0547 -15.2383 -8.99751 73.5997 1.76437 36.435 5.53649 -0.735648 1.3646 0.168249 -1.83458 7.72064 -1.50866 
